# Blender v2.78 (sub 0) OBJ File: ''
# www.blender.org
mtllib boneFire.mtl
o Plane
v -0.707107 1.000000 0.707107
v -0.707107 -1.000000 0.707107
v 0.707107 1.000000 -0.707107
v 0.707107 -1.000000 -0.707107
v 0.707107 1.000000 0.707107
v 0.707107 -1.000000 0.707107
v -0.707107 1.000000 -0.707107
v -0.707107 -1.000000 -0.707107
vt 0.0002 0.0002
vt 0.9998 0.9998
vt 0.0002 0.9998
vt -0.0013 0.0017
vt 0.9983 1.0013
vt -0.0013 1.0013
vt 0.9998 0.0002
vt 0.9983 0.0017
vn 0.7071 0.0000 0.7071
vn 0.7071 0.0000 -0.7071
usemtl None
s off
f 2/1/1 3/2/1 1/3/1
f 6/4/2 7/5/2 5/6/2
f 2/1/1 4/7/1 3/2/1
f 6/4/2 8/8/2 7/5/2
