# Blender v2.78 (sub 0) OBJ File: ''
# www.blender.org
o Cube.003_Cube.004
v 0.362008 0.295869 -0.455530
v 0.362008 0.295869 0.371139
v -0.464662 0.295869 0.371139
v -0.464662 0.295869 -0.455530
v 0.362008 0.924063 -0.455530
v 0.362007 0.924063 0.371140
v -0.464662 0.924063 0.371139
v -0.464662 0.924063 -0.455530
v 0.712936 -0.313713 0.375634
v 0.712936 -0.313713 1.202304
v -0.113733 -0.313713 1.202304
v -0.113733 -0.313713 0.375634
v 0.712937 0.314482 0.375634
v 0.712936 0.314482 1.202304
v -0.113734 0.314482 1.202304
v -0.113733 0.314482 0.375634
v 0.898241 -0.325364 -0.969461
v 0.898241 -0.325364 0.227818
v -0.299038 -0.325364 0.227818
v -0.299038 -0.325364 -0.969462
v 0.898242 0.584461 -0.969461
v 0.898241 0.584461 0.227818
v -0.299039 0.584461 0.227818
v -0.299038 0.584461 -0.969462
v -0.152163 -0.016944 -0.178760
v -0.152163 -0.016944 0.677572
v -1.008496 -0.016944 0.677572
v -1.008496 -0.016944 -0.178761
v -0.152163 0.633792 -0.178760
v -0.152164 0.633792 0.677572
v -1.008496 0.633792 0.677572
v -1.008496 0.633792 -0.178760
v 0.879365 -0.669002 -0.879364
v 0.879365 -0.669002 0.879365
v -0.879365 -0.669002 0.879364
v -0.879364 -0.669002 -0.879365
v 0.879365 0.381728 -0.879364
v 0.879364 0.381728 0.879365
v -0.879365 0.381728 0.879364
v -0.879365 0.381728 -0.879364
vt 0.0790 0.7371
vt 0.1841 0.6845
vt 0.1578 0.7634
vt 0.1316 0.8422
vt 0.0265 0.8947
vt 0.0527 0.8159
vt 0.0002 0.7108
vt 0.1053 0.6583
vt 0.0790 0.9998
vt 0.0002 0.9735
vt 0.2629 0.7108
vt 0.2366 0.7896
vt 0.8066 0.4862
vt 0.9117 0.4336
vt 0.8854 0.5124
vt 0.8329 0.6701
vt 0.7803 0.5650
vt 0.8591 0.5913
vt 0.7278 0.4599
vt 0.8329 0.4074
vt 0.7278 0.7226
vt 0.8066 0.7489
vt 0.9905 0.4599
vt 0.9642 0.5387
vt 0.6074 0.2665
vt 0.5313 0.1143
vt 0.6455 0.1524
vt 0.8738 0.2285
vt 0.7216 0.3046
vt 0.7597 0.1904
vt 0.5694 0.3807
vt 0.4933 0.2285
vt 0.8358 0.3426
vt 0.9880 0.2665
vt 0.9499 0.3807
vt 0.5694 0.0002
vt 0.6836 0.0382
vt 0.6185 0.5172
vt 0.5641 0.4083
vt 0.6458 0.4355
vt 0.5641 0.6804
vt 0.5097 0.5716
vt 0.5913 0.5988
vt 0.5369 0.4899
vt 0.4552 0.4627
vt 0.4552 0.7349
vt 0.5369 0.7621
vt 0.7274 0.4627
vt 0.7002 0.5444
vt 0.1392 0.1769
vt 0.3159 0.0002
vt 0.3159 0.1769
vt 0.3159 0.4927
vt 0.1392 0.3159
vt 0.3159 0.3159
vt 0.0002 0.1769
vt 0.1392 0.0002
vt 0.1392 0.6316
vt 0.3159 0.6316
vt 0.4549 0.0002
vt 0.4549 0.1769
vt 0.1053 0.9210
vt 0.0265 0.6320
vt 0.7541 0.6438
vt 0.7541 0.3811
vt 0.4552 0.3426
vt 0.4825 0.6532
vt 0.4825 0.3811
vt 0.1392 0.4927
vt 0.0002 0.0002
vn 0.0000 -1.0000 0.0000
vn 0.0000 1.0000 0.0000
vn 1.0000 -0.0000 0.0000
vn -0.0000 -0.0000 1.0000
vn -1.0000 0.0000 -0.0000
vn 0.0000 0.0000 -1.0000
s off
f 2/1/1 4/2/1 1/3/1
f 5/4/2 7/5/2 6/6/2
f 5/4/3 2/1/3 1/3/3
f 6/7/4 3/8/4 2/1/4
f 7/5/5 4/9/5 3/10/5
f 1/3/6 8/11/6 5/12/6
f 10/13/1 12/14/1 9/15/1
f 16/16/2 14/17/2 13/18/2
f 13/18/3 10/13/3 9/15/3
f 14/19/4 11/20/4 10/13/4
f 11/21/5 16/16/5 12/22/5
f 9/15/6 16/23/6 13/24/6
f 18/25/1 20/26/1 17/27/1
f 24/28/2 22/29/2 21/30/2
f 21/30/3 18/25/3 17/27/3
f 22/31/4 19/32/4 18/25/4
f 23/33/5 20/34/5 19/35/5
f 17/27/6 24/36/6 21/37/6
f 25/38/1 27/39/1 28/40/1
f 32/41/2 30/42/2 29/43/2
f 29/43/3 26/44/3 25/38/3
f 30/45/4 27/39/4 26/44/4
f 27/46/5 32/41/5 28/47/5
f 25/38/6 32/48/6 29/49/6
f 34/50/1 36/51/1 33/52/1
f 40/53/2 38/54/2 37/55/2
f 37/55/3 34/50/3 33/52/3
f 38/56/4 35/57/4 34/50/4
f 35/58/5 40/53/5 36/59/5
f 33/52/6 40/60/6 37/61/6
f 2/1/1 3/8/1 4/2/1
f 5/4/2 8/62/2 7/5/2
f 5/4/3 6/6/3 2/1/3
f 6/7/4 7/63/4 3/8/4
f 7/5/5 8/62/5 4/9/5
f 1/3/6 4/2/6 8/11/6
f 10/13/1 11/20/1 12/14/1
f 16/16/2 15/64/2 14/17/2
f 13/18/3 14/17/3 10/13/3
f 14/19/4 15/65/4 11/20/4
f 11/21/5 15/64/5 16/16/5
f 9/15/6 12/14/6 16/23/6
f 18/25/1 19/32/1 20/26/1
f 24/28/2 23/33/2 22/29/2
f 21/30/3 22/29/3 18/25/3
f 22/31/4 23/66/4 19/32/4
f 23/33/5 24/28/5 20/34/5
f 17/27/6 20/26/6 24/36/6
f 25/38/1 26/44/1 27/39/1
f 32/41/2 31/67/2 30/42/2
f 29/43/3 30/42/3 26/44/3
f 30/45/4 31/68/4 27/39/4
f 27/46/5 31/67/5 32/41/5
f 25/38/6 28/40/6 32/48/6
f 34/50/1 35/57/1 36/51/1
f 40/53/2 39/69/2 38/54/2
f 37/55/3 38/54/3 34/50/3
f 38/56/4 39/70/4 35/57/4
f 35/58/5 39/69/5 40/53/5
f 33/52/6 36/51/6 40/60/6
